# xmcd
#
# Track frame offsets: 
#        183
#        25483
#        63408
#        89958
#        114045
#        134620
#        151570
#        172733
#        202920
#        215583
#        245070
#
# Disc length: 3829 seconds
#
# Revision: 2
# Processed by: cddbd v1.5.2PL0 Copyright (c) Steve Scherf et al.
# Submitted via: ExactAudioCopyFreeDBPlugin 1.0
#
DISCID=940ef30b
DTITLE=Livin' Blues - A Blues Legend
DYEAR=1992
DGENRE=Rock
TTITLE0=Shylina
TTITLE1=Blue Breeze
TTITLE2=Back Stage
TTITLE3=That Night
TTITLE4=Dizzy Busy Bluesman
TTITLE5=Ram Jam Josey
TTITLE6=Hobo Joe
TTITLE7=I'm Coming Home
TTITLE8=The Great Grandfather
TTITLE9=Hoochie Coochie Man
TTITLE10=L.B. Boogie
EXTD=
EXTT0=
EXTT1=
EXTT2=
EXTT3=
EXTT4=
EXTT5=
EXTT6=
EXTT7=
EXTT8=
EXTT9=
EXTT10=
PLAYORDER=
